<svg width="14" height="18" viewBox="0 0 14 18" fill="none" xmlns="http://www.w3.org/2000/svg">
<path d="M7 0C3.48574 0 0.554688 2.83086 0.554688 6.44531C0.554688 7.82039 0.967891 9.04656 1.7609 10.1955L6.50676 17.601C6.73699 17.961 7.26348 17.9603 7.49324 17.601L12.2597 10.1704C13.0356 9.07344 13.4453 7.78543 13.4453 6.44531C13.4453 2.89137 10.5539 0 7 0ZM7 9.375C5.38465 9.375 4.07031 8.06066 4.07031 6.44531C4.07031 4.82996 5.38465 3.51562 7 3.51562C8.61535 3.51562 9.92969 4.82996 9.92969 6.44531C9.92969 8.06066 8.61535 9.375 7 9.375Z" fill="white"/>
</svg>
