<svg width="19" height="15" viewBox="0 0 19 15" fill="none" xmlns="http://www.w3.org/2000/svg">
<path d="M9.80928 13.7435C9.80028 14.1352 9.42678 14.4193 9.05403 14.3535C9.56628 14.4443 10.758 14.5714 11.4285 14.3535C11.04 14.4103 10.6853 14.1232 10.6763 13.7405C10.6763 13.7613 10.4138 11.7308 11.4623 9.85276C12.36 8.2468 12.8595 8.41429 13.911 8.02549C15.258 7.52607 16.6425 7.01174 17.5928 5.89026C19.1438 4.05706 18.7335 1.54501 18.6008 0.866156C16.9358 3.18383 15.249 2.52591 13.5503 3.58157C11.823 4.65517 11.052 6.34781 11.2185 8.1601C12.93 5.25926 15.0915 6.53625 17.3243 3.6354C16.7813 4.50864 16.0388 5.26824 15.1133 5.80952C13.7843 6.59901 13.143 6.36876 11.1293 9.20381C10.7595 9.72418 10.4603 10.2923 10.2443 10.8875C9.99453 10.1997 9.63378 9.53872 9.17703 8.95858C8.26128 7.8012 7.85778 7.14629 7.05603 6.58709C5.95803 5.8155 4.08904 5.51944 2.58146 3.08514C5.09779 6.35981 7.45653 4.86451 9.37503 8.12119C9.56553 6.0577 8.66553 4.20061 6.78153 3.02832C4.89078 1.85304 3.01623 2.58572 1.16298 0.00488281C1.01501 0.761487 0.558637 3.55765 2.28544 5.5972C3.33956 6.84301 4.87128 7.4116 6.36528 7.96607L6.38029 7.97167C7.09879 8.23785 8.94603 8.31858 9.66753 11.5095C9.86478 12.3947 9.83103 12.9061 9.80928 13.7435Z" fill="#00730C"/>
</svg>
