<svg width="13" height="16" viewBox="0 0 13 16" fill="none" xmlns="http://www.w3.org/2000/svg">
<path d="M6.68908 15.109C5.82958 15.109 4.91909 15.0218 3.95908 14.8472C2.99909 14.6727 2.13958 14.3721 1.37908 13.9454C0.959083 13.7127 0.699588 13.4314 0.599088 13.1018C0.499338 12.7527 0.509083 12.4327 0.629083 12.1418C0.769333 11.8314 0.989087 11.6084 1.28909 11.4727C1.60934 11.3369 1.97908 11.366 2.39908 11.5599C3.19933 11.9284 3.94933 12.1903 4.64908 12.3454C5.34958 12.4812 6.03958 12.549 6.71908 12.549C7.67908 12.549 8.38934 12.3939 8.84909 12.0836C9.32909 11.7539 9.56909 11.3272 9.56909 10.8036C9.56909 9.98903 8.94958 9.46539 7.70908 9.23267L4.70908 8.67994C2.16959 8.21449 0.899084 6.93449 0.899084 4.83994C0.899084 3.90903 1.15933 3.10416 1.67908 2.42539C2.21908 1.74663 2.95933 1.22299 3.89908 0.854484C4.83958 0.485975 5.91958 0.301758 7.13908 0.301758C8.89933 0.301758 10.4691 0.679939 11.8491 1.4363C12.2293 1.63027 12.4491 1.90176 12.5091 2.25085C12.5893 2.58052 12.5496 2.90052 12.3891 3.21085C12.2496 3.50176 12.0193 3.71507 11.6991 3.85085C11.3796 3.96721 11.0091 3.92845 10.5891 3.73448C9.96959 3.42416 9.36959 3.20118 8.78909 3.06539C8.22959 2.92961 7.68958 2.86176 7.16908 2.86176C6.18958 2.86176 5.45909 3.02663 4.97909 3.3563C4.51934 3.68598 4.28909 4.12234 4.28909 4.66539C4.28909 5.5187 4.85909 6.04234 5.99909 6.2363L8.99909 6.78903C10.2996 7.02176 11.2791 7.44845 11.9391 8.06903C12.6193 8.68961 12.9591 9.52358 12.9591 10.5708C12.9591 11.9866 12.3891 13.1018 11.2491 13.9163C10.1091 14.7114 8.58958 15.109 6.68908 15.109Z" fill="#00730C"/>
</svg>
