<svg width="73" height="22" viewBox="0 0 73 22" fill="none" xmlns="http://www.w3.org/2000/svg">
<path d="M1.98006 21.0507C0.700056 21.0507 0.0600586 20.4107 0.0600586 19.1307V2.19981C0.0600586 0.939226 0.710061 0.3089 2.01006 0.3089H9.24006C11.56 0.3089 13.3501 0.871299 14.6101 1.99617C15.8701 3.12104 16.5001 4.69195 16.5001 6.7089C16.5001 8.72584 15.8701 10.3065 14.6101 11.4507C13.3501 12.5756 11.56 13.138 9.24006 13.138H3.90006V19.1307C3.90006 20.4107 3.26006 21.0507 1.98006 21.0507ZM3.90006 10.1998H8.64006C11.4001 10.1998 12.7801 9.03617 12.7801 6.7089C12.7801 4.40104 11.4001 3.24708 8.64006 3.24708H3.90006V10.1998ZM24.2804 21.1089C20.9404 21.1089 19.2704 19.2956 19.2704 15.6689V1.9089C19.2704 0.687081 19.8904 0.0761719 21.1304 0.0761719C22.3904 0.0761719 23.0204 0.687081 23.0204 1.9089V15.4944C23.0204 17.2398 23.7704 18.1125 25.2704 18.1125C25.4304 18.1125 25.5804 18.1125 25.7204 18.1125C25.8604 18.0931 26.0004 18.0738 26.1403 18.0544C26.4204 18.0156 26.6104 18.0931 26.7104 18.2871C26.8104 18.4616 26.8604 18.8301 26.8604 19.3925C26.8604 19.8774 26.7604 20.2556 26.5604 20.5271C26.3604 20.7986 26.0304 20.9634 25.5704 21.0216C25.1504 21.0798 24.7204 21.1089 24.2804 21.1089ZM33.6805 21.1089C32.6205 21.1089 31.6705 20.9149 30.8305 20.5271C30.0105 20.1198 29.3605 19.5768 28.8805 18.898C28.4205 18.2192 28.1905 17.4531 28.1905 16.5998C28.1905 15.5525 28.4704 14.7283 29.0305 14.1271C29.5905 13.5065 30.5005 13.0604 31.7605 12.7889C33.0205 12.5174 34.7104 12.3816 36.8305 12.3816H37.8805V11.7707C37.8805 10.801 37.6605 10.1029 37.2205 9.67617C36.7804 9.24948 36.0405 9.03617 35.0005 9.03617C34.4205 9.03617 33.7905 9.10403 33.1105 9.23981C32.4505 9.37559 31.7505 9.60832 31.0105 9.93799C30.5305 10.1513 30.1305 10.1804 29.8105 10.0253C29.4904 9.85072 29.2705 9.5889 29.1505 9.23981C29.0505 8.8713 29.0704 8.50286 29.2105 8.13435C29.3704 7.76584 29.6805 7.49435 30.1405 7.31981C31.0605 6.9513 31.9405 6.68948 32.7805 6.53435C33.6405 6.37923 34.4205 6.30163 35.1205 6.30163C37.2604 6.30163 38.8504 6.7865 39.8905 7.75617C40.9305 8.7065 41.4505 10.1901 41.4505 12.2071V19.1889C41.4505 20.4301 40.8705 21.0507 39.7105 21.0507C38.5305 21.0507 37.9405 20.4301 37.9405 19.1889V18.5489C37.6005 19.344 37.0605 19.9744 36.3205 20.4398C35.5804 20.8858 34.7005 21.1089 33.6805 21.1089ZM34.4605 18.6071C35.4405 18.6071 36.2505 18.2774 36.8905 17.618C37.5505 16.9586 37.8805 16.1247 37.8805 15.1162V14.4762H36.8605C34.9804 14.4762 33.6705 14.6216 32.9305 14.9125C32.2105 15.184 31.8505 15.6883 31.8505 16.4253C31.8505 17.0653 32.0805 17.5889 32.5405 17.9962C33.0004 18.4034 33.6405 18.6071 34.4605 18.6071ZM47.1167 21.0507C45.8767 21.0507 45.2567 20.4301 45.2567 19.1889V8.19254C45.2567 6.97072 45.8667 6.35981 47.0867 6.35981C48.3067 6.35981 48.9167 6.97072 48.9167 8.19254V8.80344C49.4167 7.9889 50.0867 7.36832 50.9267 6.94163C51.7867 6.51494 52.7467 6.30163 53.8067 6.30163C57.2667 6.30163 58.9967 8.25072 58.9967 12.1489V19.1889C58.9967 20.4301 58.3767 21.0507 57.1367 21.0507C55.8767 21.0507 55.2467 20.4301 55.2467 19.1889V12.3234C55.2467 11.218 55.0267 10.4131 54.5867 9.9089C54.1667 9.40468 53.5067 9.15253 52.6067 9.15253C51.5067 9.15253 50.6267 9.49195 49.9667 10.1707C49.3267 10.8301 49.0067 11.7125 49.0067 12.818V19.1889C49.0067 20.4301 48.3767 21.0507 47.1167 21.0507ZM69.5255 21.1089C65.6455 21.1089 63.7055 19.2471 63.7055 15.5234V9.32708H62.1455C61.1455 9.32708 60.6455 8.8713 60.6455 7.95981C60.6455 7.04832 61.1455 6.59254 62.1455 6.59254H63.7055V3.94526C63.7055 2.72344 64.3355 2.11254 65.5955 2.11254C66.8356 2.11254 67.4555 2.72344 67.4555 3.94526V6.59254H70.6355C71.6356 6.59254 72.1355 7.04832 72.1355 7.95981C72.1355 8.8713 71.6356 9.32708 70.6355 9.32708H67.4555V15.3198C67.4555 16.2507 67.6655 16.9489 68.0855 17.4144C68.5055 17.8798 69.1855 18.1125 70.1255 18.1125C70.4656 18.1125 70.7655 18.0834 71.0255 18.0253C71.2855 17.9671 71.5155 17.9283 71.7155 17.9089C71.9555 17.8895 72.1555 17.9671 72.3155 18.1416C72.4756 18.2968 72.5555 18.6265 72.5555 19.1307C72.5555 19.5186 72.4855 19.8677 72.3455 20.178C72.2255 20.4689 71.9956 20.6725 71.6555 20.7889C71.3956 20.8665 71.0555 20.9344 70.6355 20.9925C70.2155 21.0701 69.8455 21.1089 69.5255 21.1089Z" fill="#0B0B0B"/>
</svg>
