<svg width="30" height="22" viewBox="0 0 30 22" fill="none" xmlns="http://www.w3.org/2000/svg">
<path d="M29.1473 5.64654L26.5007 8.29306L22.2077 4.00002L24.8542 1.35349L24.1472 0.646484L21.1472 3.64652L18.7937 6.00004H11.2076L8.85406 3.64652L5.85403 0.646484L5.14702 1.35349L7.79355 4.00002L3.50051 8.29306L0.85398 5.64654L0.146973 6.35355L3.147 9.35358L5.64703 11.8536L8.29706 14.4896L7.89705 14.8896C7.29036 15.4896 7.28498 16.4679 7.88499 17.0746C7.88899 17.0787 7.89299 17.0827 7.89705 17.0867C8.17562 17.3627 8.54812 17.5233 8.94006 17.5367C8.9545 17.9279 9.118 18.2987 9.39707 18.5732C9.67576 18.849 10.0482 19.0097 10.4401 19.0232C10.4553 19.415 10.6201 19.7861 10.9006 20.0602C11.1793 20.336 11.5517 20.4967 11.9436 20.5102C11.958 20.9014 12.1215 21.2722 12.4006 21.5467C13.0114 22.1501 13.9939 22.1501 14.6046 21.5467L15.0006 21.1502L15.3966 21.5437C16.0068 22.1528 16.9951 22.1519 17.6042 21.5417C17.8808 21.2646 18.0432 20.8938 18.0592 20.5027C18.4517 20.4885 18.8243 20.3268 19.1027 20.0497C19.3816 19.7735 19.5449 19.4014 19.5592 19.0092C19.9517 18.9948 20.3244 18.8329 20.6027 18.5557C20.8816 18.2795 21.0449 17.9074 21.0592 17.5152C21.9175 17.4855 22.5893 16.7657 22.5596 15.9074C22.546 15.5126 22.3826 15.1378 22.1027 14.8591L21.7237 14.4816L24.3532 11.8521L26.8532 9.35208L29.8533 6.35205L29.1473 5.64654ZM4.20751 9.00007L8.50056 4.70703L10.2936 6.50005L6.00053 10.7931L4.20751 9.00007ZM9.40057 16.3756C9.17957 16.5964 8.82156 16.5964 8.60056 16.3756C8.386 16.1641 8.3835 15.8188 8.595 15.6042C8.59681 15.6023 8.59869 15.6005 8.60056 15.5986L9.00706 15.1956L9.80057 15.9796L9.40057 16.3756ZM10.8941 17.8642C10.6734 18.0798 10.3208 18.0794 10.1006 17.8632C9.88589 17.651 9.88376 17.305 10.096 17.0903C10.0975 17.0887 10.099 17.0872 10.1006 17.0857L10.5051 16.6857L11.2941 17.4697L10.8941 17.8642ZM12.4006 19.3502C12.1794 19.5704 11.8218 19.5704 11.6006 19.3502C11.386 19.1387 11.3835 18.7933 11.595 18.5787C11.5968 18.5769 11.5987 18.575 11.6006 18.5732L12.0036 18.1732L12.7921 18.9572L12.4006 19.3502ZM13.9006 20.8372C13.6799 21.0548 13.3254 21.0548 13.1046 20.8372C12.89 20.6257 12.8875 20.2803 13.099 20.0658C13.1009 20.0639 13.1027 20.062 13.1046 20.0602L13.5046 19.6627L14.2931 20.4467L13.9006 20.8372ZM21.4014 16.3519C21.4005 16.3528 21.3996 16.3537 21.3987 16.3546H21.4007C21.1809 16.5728 20.8264 16.5728 20.6067 16.3546L19.8567 15.6076C19.661 15.4127 19.3444 15.4133 19.1494 15.6089C18.9545 15.8045 18.955 16.1212 19.1507 16.3161L19.9007 17.0632C20.1176 17.2785 20.1188 17.629 19.9034 17.8459C19.9025 17.8469 19.9016 17.8477 19.9007 17.8487C19.6809 18.0668 19.3264 18.0668 19.1067 17.8487L18.3567 17.1017C18.161 16.9067 17.8443 16.9073 17.6494 17.1029C17.4545 17.2985 17.455 17.6152 17.6507 17.8102L18.4007 18.5572C18.6176 18.7725 18.6188 19.1231 18.4034 19.3399C18.4025 19.3409 18.4016 19.3417 18.4007 19.3427C18.1809 19.5608 17.8264 19.5608 17.6067 19.3427L16.8566 18.5957C16.661 18.4007 16.3443 18.4013 16.1494 18.5969C15.9544 18.7926 15.955 19.1092 16.1506 19.3042L16.9006 20.0512C17.1176 20.2666 17.1188 20.6171 16.9034 20.8339C16.9025 20.8349 16.9016 20.8358 16.9006 20.8367C16.6806 21.0546 16.3261 21.0546 16.1061 20.8367L6.70854 11.5001L11.2086 7.00005H12.8141L9.14407 10.7561C8.95263 10.952 8.95444 11.2654 9.14807 11.4591C9.76776 12.085 10.5998 12.4554 11.4796 12.4971C12.3648 12.544 13.2284 12.2126 13.8551 11.5856C13.8772 11.5637 13.8971 11.5398 13.9146 11.5141L14.0956 11.2486C15.1753 12.0999 16.5828 12.4156 17.9227 12.1071L21.3987 15.5691C21.6156 15.7845 21.6168 16.135 21.4014 16.3519ZM21.0192 13.7776L18.9217 11.6886L19.3007 11.4001C19.3185 11.3862 19.3352 11.371 19.3507 11.3546L19.8507 10.8546L19.1437 10.1476L18.6682 10.6231L18.2357 10.9491C16.9006 11.5202 15.3514 11.2011 14.3506 10.1491C14.1554 9.95377 13.8388 9.95377 13.6435 10.149C13.6215 10.171 13.6016 10.1949 13.5841 10.2206L13.1116 10.9121C12.6843 11.3166 12.1103 11.529 11.5226 11.5001C11.063 11.4764 10.6185 11.3273 10.2376 11.0691L14.2111 7.00005H18.7937L23.2937 11.5001L21.0192 13.7776ZM24.0007 10.7931L19.7077 6.50005L21.5007 4.70703L25.7937 9.00007L24.0007 10.7931Z" fill="white"/>
</svg>
