<svg width="23" height="30" viewBox="0 0 23 30" fill="none" xmlns="http://www.w3.org/2000/svg">
<g filter="url(#filter0_d_2212_4864)">
<path d="M12.7377 23.0432L12.6876 22.1811C12.687 22.1715 12.6861 22.1619 12.6847 22.1523C12.5669 21.3034 12.2165 20.5036 11.6722 19.8415C11.1279 19.1794 10.4111 18.6809 9.60093 18.4011L9.32074 18.3036C8.93245 18.1678 8.57963 17.9466 8.28837 17.6561L6.92619 16.2939L6.46001 14.7164C6.34835 14.3024 6.11371 13.932 5.7871 13.6541C5.4605 13.3762 5.05728 13.204 4.63072 13.1601L4.55419 12.9047C4.55337 12.9019 4.55244 12.8988 4.55156 12.8963C4.33441 12.2326 3.61218 11.8054 2.87619 11.8542L2.85298 11.7773C2.71273 11.3059 2.39606 10.9068 1.96891 10.663C1.54176 10.4192 1.03705 10.3496 0.559858 10.4687C0.472881 10.4902 0.39743 10.5442 0.348924 10.6196C0.300417 10.6949 0.282517 10.786 0.298881 10.8741L1.79144 18.9065C1.79449 18.9229 1.7987 18.939 1.80404 18.9548C2.15453 19.9853 2.82551 20.8767 3.71888 21.4986L6.97857 23.7446C6.98443 23.7489 6.99099 23.753 6.99749 23.7568C7.22785 23.8942 7.39956 24.1115 7.4799 24.3674L7.72775 27.7161C7.73283 27.7852 7.75818 27.8512 7.80062 27.9058C7.84305 27.9605 7.90068 28.0015 7.96628 28.0235L8.03337 28.046C9.49924 28.5423 11.086 28.5533 12.5586 28.0774L12.7221 28.025C12.793 28.0023 12.8549 27.9576 12.8988 27.8975C12.9427 27.8373 12.9664 27.7647 12.9664 27.6902V25.8164C12.9664 25.0546 12.8994 24.2314 12.7554 23.2244C12.7472 23.1645 12.7411 23.1035 12.7377 23.0432ZM5.78185 14.9021C5.78261 14.9052 5.78349 14.9083 5.78443 14.9113L5.94029 15.4386C5.72189 15.3187 5.48523 15.2355 5.2398 15.1925L4.8597 13.9242C5.08242 13.998 5.28331 14.126 5.44427 14.2967C5.60524 14.4674 5.72125 14.6754 5.78185 14.9021ZM3.88206 13.1115L4.50374 15.1857C4.30382 15.2154 4.10874 15.2715 3.92367 15.3527L3.08794 12.562C3.43113 12.5958 3.77408 12.7881 3.88206 13.1115ZM12.2634 27.4332C11.0085 27.8209 9.66569 27.8196 8.41165 27.4293L8.17839 24.2777C8.1767 24.2541 8.17257 24.2307 8.16609 24.208C8.04304 23.77 7.75804 23.3952 7.36886 23.1596L4.11861 20.9203C3.35642 20.3894 2.78206 19.6307 2.47798 18.7531L1.05896 11.1155C1.3127 11.1234 1.55751 11.211 1.75863 11.3659C1.95975 11.5208 2.10695 11.7351 2.17933 11.9784L3.3113 15.7525C3.28572 15.7759 3.26058 15.7999 3.23589 15.8245C3.20232 15.8581 3.17591 15.8982 3.15825 15.9423C3.14059 15.9864 3.13205 16.0336 3.13315 16.0811C3.13424 16.1286 3.14495 16.1754 3.16462 16.2186C3.1843 16.2618 3.21253 16.3006 3.24761 16.3327L4.88044 17.8242C5.35594 18.2587 5.79081 18.7356 6.17964 19.2492C6.20737 19.2863 6.24218 19.3176 6.28207 19.3413C6.32195 19.365 6.36612 19.3805 6.41203 19.387C6.45794 19.3935 6.50469 19.3909 6.54958 19.3793C6.59447 19.3676 6.63661 19.3472 6.67359 19.3192C6.71056 19.2913 6.74163 19.2562 6.76502 19.2162C6.7884 19.1761 6.80362 19.1319 6.80982 19.0859C6.81602 19.04 6.81307 18.9932 6.80113 18.9484C6.78919 18.9036 6.76851 18.8616 6.74027 18.8248C6.32557 18.2772 5.86179 17.7685 5.3547 17.3051L4.02544 16.0912C4.32709 15.9076 4.68163 15.8305 5.03229 15.8722C5.38296 15.914 5.70946 16.0723 5.95951 16.3216L7.79115 18.1532C8.15742 18.5186 8.60116 18.7969 9.08953 18.9677L9.36972 19.0652C10.0554 19.302 10.6624 19.7233 11.1241 20.2829C11.5857 20.8424 11.8841 21.5184 11.9863 22.2366L12.0356 23.0837C12.0401 23.1635 12.0483 23.2443 12.0596 23.3239C12.1985 24.2972 12.2633 25.0891 12.2633 25.8165L12.2634 27.4332Z" fill="white"/>
</g>
<defs>
<filter id="filter0_d_2212_4864" x="-9.70703" y="0.411865" width="32.6733" height="38.0146" filterUnits="userSpaceOnUse" color-interpolation-filters="sRGB">
<feFlood flood-opacity="0" result="BackgroundImageFix"/>
<feColorMatrix in="SourceAlpha" type="matrix" values="0 0 0 0 0 0 0 0 0 0 0 0 0 0 0 0 0 0 127 0" result="hardAlpha"/>
<feOffset/>
<feGaussianBlur stdDeviation="5"/>
<feComposite in2="hardAlpha" operator="out"/>
<feColorMatrix type="matrix" values="0 0 0 0 0 0 0 0 0 0 0 0 0 0 0 0 0 0 0.25 0"/>
<feBlend mode="normal" in2="BackgroundImageFix" result="effect1_dropShadow_2212_4864"/>
<feBlend mode="normal" in="SourceGraphic" in2="effect1_dropShadow_2212_4864" result="shape"/>
</filter>
</defs>
</svg>
