<svg width="50" height="48" viewBox="0 0 50 48" fill="none" xmlns="http://www.w3.org/2000/svg">
<path d="M49.268 45.9897H48.6015C48.267 42.3822 45.4865 39.4464 41.8991 38.9253C41.7835 37.325 41.2411 35.8026 40.313 34.4876C40.0795 34.1573 39.6229 34.0783 39.2925 34.3114C38.9622 34.5449 38.8832 35.0015 39.1163 35.3318C39.994 36.5754 40.4579 38.0422 40.4579 39.5742V39.5883C40.4579 39.9755 40.7597 40.2959 41.1465 40.3192C44.278 40.5065 46.7808 42.9368 47.1294 45.9897H2.86789C3.21655 42.9368 5.71938 40.5065 8.85086 40.3192C9.23767 40.2959 9.53941 39.9755 9.53941 39.5883V39.5742C9.53941 35.513 12.8433 32.2091 16.9044 32.2091C16.9907 32.2091 17.0765 32.211 17.1627 32.2141C17.1658 32.2141 17.1688 32.2148 17.1722 32.2148C17.173 32.2148 17.1738 32.2145 17.1745 32.2145C17.3988 32.2229 17.6212 32.2408 17.8391 32.2694C18.1057 32.3045 18.3704 32.1901 18.5284 31.9715C20.126 29.754 22.7081 28.4303 25.436 28.4303C28.1349 28.4303 30.7022 29.7322 32.3032 31.9131C32.4413 32.1008 32.6607 32.2122 32.8938 32.2122C32.9315 32.2122 32.9693 32.211 33.0078 32.2103C33.0368 32.2099 33.0658 32.2091 33.0956 32.2091C34.3967 32.2091 35.6785 32.5547 36.8023 33.2086C37.1517 33.4119 37.5999 33.2936 37.8033 32.9442C38.007 32.5948 37.8883 32.1466 37.5389 31.9429C36.2373 31.1856 34.7595 30.7733 33.2546 30.7462C31.9126 29.0574 30.0602 27.8592 28.0094 27.3076C27.985 25.0425 27.7687 22.8349 27.3773 20.8905C27.2976 20.4942 26.9115 20.2371 26.5152 20.3168C26.1185 20.3969 25.8617 20.783 25.9418 21.1793C26.2981 22.9516 26.503 24.9581 26.5411 27.0284C26.1757 26.9872 25.8068 26.9658 25.436 26.9658C22.382 26.9658 19.4839 28.3811 17.5987 30.7721C17.5407 30.7675 17.4824 30.7653 17.424 30.7618C12.2177 27.0455 9.26285 23.171 9.31206 20.1116C9.33723 18.5521 10.1444 17.151 11.7123 15.9375L12.2475 16.921C12.4504 17.2994 12.7895 17.5748 13.2027 17.6969C13.3537 17.7415 13.5082 17.7636 13.6616 17.7636C13.9236 17.7636 14.1834 17.6992 14.4207 17.5721C14.4222 17.5714 14.4234 17.5706 14.4249 17.5698L16.4883 16.4479C17.2649 16.0241 17.5522 15.0479 17.1295 14.2736L16.6248 13.3458C18.4116 12.7729 19.9738 12.7732 21.278 13.3485C22.8786 14.0546 24.1524 15.6362 25.0637 18.0493C25.1743 18.3423 25.4528 18.5228 25.7488 18.5228C25.8347 18.5228 25.922 18.5079 26.0075 18.4755C26.3855 18.3328 26.5766 17.9101 26.4336 17.5317C25.378 14.7374 23.8422 12.8793 21.8689 12.0088C20.1595 11.2546 18.1587 11.2676 15.9149 12.0408L15.345 10.9929C15.6464 9.9599 15.5312 8.875 15.02 7.93735L12.1574 2.66925C11.6451 1.72588 10.7922 1.03733 9.75647 0.731006C8.7204 0.424305 7.63016 0.538364 6.68602 1.05182C5.74188 1.56414 5.05295 2.41748 4.74625 3.45432C4.43993 4.49077 4.5536 5.58101 5.06592 6.52439L7.92847 11.7898C8.44231 12.7343 9.29604 13.4233 10.3317 13.73C10.4008 13.7506 10.4706 13.767 10.5404 13.7838L11.0043 14.6367C8.94318 16.1615 7.88155 17.9925 7.84798 20.0879C7.78046 24.2879 11.8881 28.3445 15.1798 30.9144C11.3407 31.6777 8.38966 34.9382 8.0986 38.9253C4.51088 39.4464 1.73035 42.3822 1.3958 45.9897H0.73204C0.327683 45.9897 0 46.3178 0 46.7221C0 47.1265 0.327683 47.4542 0.73204 47.4542H49.268C49.6723 47.4542 50 47.1265 50 46.7221C50 46.3178 49.6723 45.9897 49.268 45.9897ZM14.5103 12.5234L15.8436 14.9743C15.8794 15.0403 15.8535 15.1265 15.7875 15.1624L13.728 16.282C13.6822 16.306 13.6398 16.2992 13.6181 16.2927C13.5933 16.2854 13.5597 16.2686 13.5365 16.2252L12.2322 13.8288C12.6373 13.7517 13.0318 13.6117 13.4033 13.4095C13.8283 13.1784 14.2006 12.8778 14.5103 12.5234ZM10.7475 12.3258C10.0864 12.1301 9.54208 11.691 9.21516 11.0902L6.353 5.82515C6.02722 5.2251 5.95512 4.53083 6.15082 3.86974C6.34613 3.20827 6.78444 2.66468 7.38449 2.3389C7.38487 2.3389 7.38525 2.3389 7.38564 2.33852C7.76443 2.13253 8.181 2.02762 8.60329 2.02762C8.84933 2.02762 9.09767 2.0631 9.34143 2.1352C10.0021 2.33089 10.5453 2.76882 10.8711 3.36849L13.7341 8.63735C14.0602 9.23587 14.1327 9.92939 13.9374 10.5905C13.9175 10.6572 13.895 10.7221 13.8702 10.7865C13.8691 10.79 13.8668 10.7934 13.8653 10.7972C13.8584 10.8152 13.8515 10.8342 13.8443 10.8529C13.62 11.3958 13.2225 11.8409 12.7037 12.1228C12.2253 12.383 11.6875 12.481 11.1542 12.4116C11.1435 12.4101 11.1328 12.4082 11.1225 12.4066C11.1183 12.4059 11.1137 12.4063 11.1092 12.4055C10.9882 12.3876 10.8673 12.3613 10.7475 12.3258Z" fill="#00730C"/>
</svg>
