<svg width="16" height="16" viewBox="0 0 16 16" fill="none" xmlns="http://www.w3.org/2000/svg">
<path d="M13.6724 15.7891C14.637 15.7891 15.4219 15.0005 15.4219 14.0312V11.6875C15.4219 11.4354 15.2607 11.2116 15.0216 11.1318L11.5143 9.95988C11.3426 9.90254 11.1542 9.92774 11.0036 10.0281L9.51211 11.0224C7.91141 10.2629 6.01949 8.38773 5.26699 6.81547L6.26098 5.32449C6.36133 5.17394 6.38652 4.98543 6.32918 4.81379L5.1573 1.30648C5.07742 1.06742 4.85363 0.90625 4.60156 0.90625H2.25781C1.28855 0.90625 0.5 1.69105 0.5 2.65574C0.5 5.89313 1.97203 9.21574 4.53867 11.7716C7.1025 14.3248 10.4316 15.7891 13.6724 15.7891ZM2.25781 2.07812H4.17957L5.12684 4.91313L4.11406 6.43227C4.00703 6.59281 3.9859 6.79574 4.05758 6.97488C4.44723 7.94898 5.22699 9.04457 6.2532 10.0598C7.27266 11.0684 8.37359 11.8396 9.35324 12.2315C9.53234 12.3031 9.73535 12.282 9.89586 12.175L11.415 11.1622L14.25 12.1095V14.0312C14.25 14.3598 13.9963 14.6172 13.6724 14.6172C7.50391 14.6172 1.67188 8.80414 1.67188 2.65574C1.67188 2.33184 1.92926 2.07812 2.25781 2.07812Z" fill="#00730C"/>
</svg>
